<svg version="1.1" id="Layer_1" xmlns="http://www.w3.org/2000/svg" xmlns:xlink="http://www.w3.org/1999/xlink" x="0px" y="0px"
	 width="100%" viewBox="0 0 500 500" enable-background="new 0 0 500 500" xml:space="preserve">
<path fill="#1E0010" opacity="1.000000" stroke="none" 
	d="
M229.000000,501.000000 
	C154.000015,501.000000 79.499985,500.969910 5.000216,501.096252 
	C1.575864,501.102081 0.903036,500.423798 0.905301,497.000000 
	C1.013779,333.000092 1.013772,169.000122 0.905333,5.000235 
	C0.903070,1.576909 1.575829,0.903023 4.999888,0.905288 
	C168.999771,1.013774 332.999725,1.013761 496.999634,0.905352 
	C500.422668,0.903090 501.096985,1.575450 501.094727,4.999769 
	C500.986206,168.999649 500.986237,332.999634 501.094604,496.999542 
	C501.096893,500.422333 500.425354,501.100494 497.000305,501.095825 
	C407.833649,500.974762 318.666809,501.000000 229.000000,501.000000 
z"/>
<path fill="#F08234" opacity="1.000000" stroke="none" 
	d="
M280.591187,192.377045 
	C278.029633,173.440048 267.679077,159.805450 253.837494,148.254715 
	C252.437485,147.086395 251.422226,146.922943 250.017212,148.210373 
	C241.887268,155.659958 234.102020,163.386322 228.899918,173.295837 
	C226.617889,177.642929 225.534851,182.312546 225.105377,187.578812 
	C221.402771,190.657104 217.814499,189.723495 214.001831,187.368484 
	C213.730042,180.717499 216.260178,175.264297 219.190552,170.036514 
	C226.936646,156.217590 237.896149,145.046036 249.187149,134.165237 
	C250.428299,132.969162 251.495331,132.471512 253.048370,133.700775 
	C268.966980,146.300674 282.903320,160.316956 287.433380,181.168411 
	C288.147400,184.455200 288.248474,187.765625 288.007019,191.549683 
	C285.802216,194.384918 283.494263,194.824066 280.591187,192.377045 
z"/>
<path fill="#E93E74" opacity="1.000000" stroke="none" 
	d="
M245.304260,323.955231 
	C205.754242,339.131165 167.400909,336.304016 130.118484,317.218384 
	C125.259468,314.730957 120.754417,311.552063 115.892555,308.408813 
	C117.554726,304.753326 120.782227,305.876648 123.606133,305.736511 
	C125.600548,305.637482 127.470886,306.480682 129.923340,306.728546 
	C151.475189,318.607513 174.112885,323.768372 198.175507,322.804565 
	C205.975616,322.492157 213.680695,321.403442 221.618637,319.332031 
	C228.147049,319.411011 234.298431,317.900208 240.444138,319.584869 
	C242.742691,320.214966 245.123383,320.442749 245.304260,323.955231 
z"/>
<path fill="#EA4072" opacity="1.000000" stroke="none" 
	d="
M363.194031,320.650208 
	C354.891998,326.167694 345.695435,328.345154 336.506989,330.372284 
	C310.749054,336.054901 285.396912,334.449890 260.090485,325.668457 
	C264.045349,322.905670 267.706909,320.392853 271.312103,317.801575 
	C272.379791,317.034180 273.396698,316.948914 274.580109,317.360901 
	C298.806854,325.794983 322.955078,323.925079 347.459351,316.740540 
	C351.168304,317.833527 354.470001,316.245209 357.785187,316.661407 
	C360.216827,316.966675 362.878510,316.825012 363.194031,320.650208 
z"/>
<path fill="#EB5261" opacity="1.000000" stroke="none" 
	d="
M192.709976,267.798157 
	C200.833313,274.629456 208.961990,280.633057 218.568085,285.064850 
	C219.041122,285.326294 219.185226,285.468750 219.169769,285.869965 
	C204.532135,283.986237 190.019348,282.831848 175.361588,283.924927 
	C166.395065,284.593536 157.589966,286.100891 148.419708,288.021973 
	C142.499954,287.647766 136.983093,287.660065 131.474686,287.431152 
	C128.661835,287.314240 125.822632,287.256775 123.740417,284.272186 
	C140.118271,276.087860 157.756195,273.392334 175.720047,272.142822 
	C177.202408,272.039734 178.679428,271.857391 180.156799,271.692657 
	C180.231628,271.684296 180.345673,271.486694 180.336166,271.387299 
	C180.321091,271.229553 180.217102,271.080322 179.997131,270.615814 
	C179.596771,267.552490 181.531708,267.155518 183.562653,266.843719 
	C186.526367,266.388672 189.364563,267.212067 192.709976,267.798157 
z"/>
<path fill="#E72D84" opacity="1.000000" stroke="none" 
	d="
M236.994919,341.982819 
	C217.608200,365.168427 192.908951,373.702881 163.197830,368.203583 
	C159.514389,367.521790 158.404633,366.304260 159.951477,362.697845 
	C161.792847,358.404663 163.771866,354.226044 166.827881,350.249329 
	C170.213196,348.819611 173.352783,347.526215 175.976776,351.595367 
	C175.926208,353.829529 172.786072,354.462860 174.001801,356.627960 
	C175.082520,358.552582 177.286392,357.790131 179.016052,357.788635 
	C198.316269,357.771942 216.422195,353.183533 233.183197,343.501801 
	C234.315353,342.847809 235.545929,342.364197 236.994919,341.982819 
z"/>
<path fill="#EA565D" opacity="1.000000" stroke="none" 
	d="
M359.410645,288.650452 
	C337.262024,282.378906 315.219025,280.742523 292.372192,284.625916 
	C291.822327,284.445251 291.728699,284.164429 291.851746,283.496094 
	C299.872467,279.353485 306.821014,274.416199 313.057983,267.968994 
	C316.782990,266.051636 320.219452,264.845917 323.772644,268.547455 
	C323.430298,269.775757 322.854767,270.544678 321.952942,271.749512 
	C331.003906,272.574219 339.704590,273.110291 348.307831,274.651031 
	C359.065735,276.577698 369.389648,279.740265 379.411865,284.017456 
	C380.746674,284.587158 382.162811,284.966248 383.803833,285.700195 
	C383.898468,288.640717 381.920532,289.106384 379.854523,289.262054 
	C375.865631,289.562622 371.873474,289.652710 367.905792,288.908325 
	C365.233185,288.406860 362.549622,287.927551 359.410645,288.650452 
z"/>
<path fill="#E83181" opacity="1.000000" stroke="none" 
	d="
M333.708313,348.583191 
	C338.124847,352.645935 340.246399,357.690430 342.440033,362.724548 
	C343.821625,365.895142 343.314850,367.373352 339.603882,368.107452 
	C311.315979,373.703552 287.379364,365.911499 267.557007,345.114288 
	C266.764313,344.282654 266.038971,343.386810 265.239441,342.471893 
	C267.122620,341.367432 268.133270,342.906952 269.302795,343.578705 
	C285.357178,352.799622 302.675568,357.413574 321.137421,357.775024 
	C323.561646,357.822510 327.019897,358.992249 328.186249,356.912964 
	C329.365021,354.811676 326.143219,352.858002 324.905121,350.415314 
	C327.018127,346.515320 330.214691,347.972046 333.708313,348.583191 
z"/>
<path fill="#F0793D" opacity="1.000000" stroke="none" 
	d="
M302.732910,210.122757 
	C315.856598,196.888870 331.645508,192.343369 349.522980,193.747833 
	C352.135529,193.953079 352.345001,195.449768 352.462769,197.337067 
	C352.814148,202.967896 352.459412,208.575943 351.782715,214.583374 
	C347.606964,218.351410 341.967896,218.281540 336.021179,214.383972 
	C335.555145,211.277512 333.511047,212.058884 332.077209,212.250244 
	C328.647430,212.708008 325.251923,213.422348 321.424683,214.030457 
	C316.484100,213.102188 311.863281,215.045685 307.330658,213.481949 
	C305.500610,212.850571 303.279877,213.058716 302.732910,210.122757 
z"/>
<path fill="#F17641" opacity="1.000000" stroke="none" 
	d="
M182.841553,214.369568 
	C177.526184,213.576385 172.705765,212.814270 167.469193,212.034729 
	C161.605759,216.186050 156.259949,214.167450 150.628357,211.369965 
	C150.167557,207.345108 150.201492,203.679443 149.781036,200.066635 
	C149.209579,195.156357 151.158951,193.457993 156.057159,193.403442 
	C172.269928,193.222870 186.752747,197.377762 198.570114,209.024185 
	C199.731567,210.168839 201.129898,211.073151 202.609512,212.395294 
	C202.000824,215.862076 199.634598,216.060150 196.975189,215.865921 
	C192.410980,215.532578 187.888962,214.828995 182.841553,214.369568 
z"/>
<path fill="#EB4A69" opacity="1.000000" stroke="none" 
	d="
M123.250504,283.859741 
	C130.142303,285.737823 137.018204,284.343201 143.595734,285.899811 
	C145.011398,286.234802 146.575882,286.049347 147.800842,287.702087 
	C139.760681,290.821808 131.398041,293.288788 123.539955,297.168152 
	C120.683044,298.578552 120.560181,299.703796 123.117371,301.436249 
	C125.435593,303.006805 127.696754,304.661560 130.195343,306.553284 
	C125.964966,308.766693 121.246254,307.679047 116.181534,308.102539 
	C110.595757,305.316010 106.446457,301.271851 102.004616,297.600342 
	C100.065857,295.997833 100.109444,295.092041 102.428825,293.812103 
	C109.079964,290.141602 115.711586,286.462006 123.250504,283.859741 
z"/>
<path fill="#F07F37" opacity="1.000000" stroke="none" 
	d="
M257.331421,175.412781 
	C264.269470,180.335144 266.158875,186.637085 262.794281,192.700012 
	C259.761230,198.165482 253.253937,200.569931 247.437973,198.374161 
	C241.005249,195.945541 237.804886,189.152740 240.006165,182.600098 
	C242.305130,175.756668 249.135101,172.791214 257.331421,175.412781 
z"/>
<path fill="#E97F32" opacity="1.000000" stroke="none" 
	d="
M180.413925,187.177170 
	C169.748917,174.875626 168.095413,161.392975 174.423996,146.740662 
	C175.701263,143.783432 177.263016,142.887207 180.472366,144.135483 
	C191.837112,148.555801 200.306412,156.051971 205.590088,167.046356 
	C206.256912,168.433914 207.524994,169.838104 206.377975,172.312988 
	C200.740875,164.271515 193.323151,158.900177 184.743210,155.036942 
	C179.359695,152.612930 179.164246,152.694489 177.467819,158.440491 
	C174.666809,167.927765 176.310394,176.818985 181.109528,185.671646 
	C181.312958,186.498276 181.157501,186.890701 180.413925,187.177170 
z"/>
<path fill="#E97F32" opacity="1.000000" stroke="none" 
	d="
M320.232056,187.839447 
	C326.050201,177.898087 327.846588,167.958099 324.673218,157.230713 
	C323.669159,153.836624 322.497253,152.691879 318.820496,154.443649 
	C310.300171,158.503052 302.487701,163.306213 296.996887,171.232895 
	C296.564941,171.856430 296.208527,172.668823 295.229309,172.645386 
	C297.119507,160.666077 311.673523,146.090973 323.839722,143.554230 
	C326.718292,142.954041 326.899750,144.900024 327.666534,146.302460 
	C334.896729,159.526291 332.554535,175.649002 321.414795,187.977753 
	C320.763367,188.198486 320.414429,188.273346 320.232056,187.839447 
z"/>
<path fill="#EB5261" opacity="1.000000" stroke="none" 
	d="
M275.731995,272.631226 
	C278.594269,279.269104 278.557404,285.766479 277.363922,292.694153 
	C270.251923,297.343262 263.403076,295.670502 256.324829,292.456177 
	C257.481903,285.703735 257.894012,279.353058 256.674652,272.482300 
	C260.787903,268.630402 269.244690,268.759125 275.731995,272.631226 
z"/>
<path fill="#EB4A69" opacity="1.000000" stroke="none" 
	d="
M255.885406,292.307617 
	C262.798706,292.199463 269.455292,293.478912 276.673309,293.043427 
	C276.316437,300.172974 272.545197,305.741180 267.486938,310.928253 
	C260.834564,314.319611 254.223099,312.131134 247.718338,311.923035 
	C246.085648,311.870789 245.140976,310.577637 244.916565,308.458893 
	C249.488541,303.498810 253.552475,298.717407 255.885406,292.307617 
z"/>
<path fill="#EF5E58" opacity="1.000000" stroke="none" 
	d="
M276.102386,272.570251 
	C269.921600,273.080994 263.827789,271.414032 257.131653,272.012756 
	C254.782715,265.392792 252.050842,259.123138 248.895905,252.648865 
	C248.620163,250.148499 249.961365,249.163956 251.747864,248.986786 
	C256.342560,248.531128 261.018158,247.685425 265.749268,250.632309 
	C270.850281,257.376556 273.968597,264.545715 276.102386,272.570251 
z"/>
<path fill="#EF674E" opacity="1.000000" stroke="none" 
	d="
M266.083435,250.589142 
	C260.653503,251.463867 255.024185,250.074554 249.204712,252.069397 
	C243.927689,244.207352 238.875244,236.212128 233.006012,228.361633 
	C234.164688,225.172836 236.677063,225.852554 238.935196,225.983505 
	C241.691528,226.143372 244.324020,227.250259 247.547028,227.118683 
	C255.153687,233.897156 260.466248,242.153091 266.083435,250.589142 
z"/>
<path fill="#EB5261" opacity="1.000000" stroke="none" 
	d="
M359.337128,288.922852 
	C361.210724,285.142395 364.706573,285.881653 367.947235,286.340027 
	C373.082123,287.066223 378.175568,287.515350 383.674561,286.115479 
	C389.696747,287.858551 394.720459,290.962982 399.886383,293.798126 
	C402.008636,294.962830 402.612579,295.888275 400.367523,297.579254 
	C398.145813,299.252625 396.100159,301.159668 393.661469,303.062714 
	C390.379456,303.762177 387.445984,304.603149 384.360504,304.267273 
	C382.382202,304.051910 380.392853,303.896545 379.431610,301.156616 
	C381.632721,298.720490 380.217621,297.898376 378.359253,296.935333 
	C372.336792,293.814423 366.016541,291.424103 359.337128,288.922852 
z"/>
<path fill="#EB4A69" opacity="1.000000" stroke="none" 
	d="
M379.045074,300.793335 
	C383.483795,302.939331 388.297241,301.148346 392.939941,303.001892 
	C384.443939,310.686981 374.739807,316.886475 363.423126,321.072510 
	C361.312347,318.759796 358.751587,319.106781 356.299774,318.983154 
	C353.578430,318.845917 350.629364,319.673645 348.115051,316.997803 
	C358.662689,312.431580 369.261536,307.770111 379.045074,300.793335 
z"/>
<path fill="#EB4371" opacity="1.000000" stroke="none" 
	d="
M244.664978,308.092834 
	C246.675461,309.551758 248.749466,310.053009 250.961380,309.963959 
	C256.117859,309.756348 261.212433,310.329193 266.744873,311.050140 
	C261.410645,317.579041 253.963196,321.396240 245.550308,324.338867 
	C240.911377,320.773773 235.558990,321.740417 230.609436,321.020935 
	C227.902161,320.627411 224.973892,321.796478 222.243927,319.581055 
	C229.956940,316.624786 237.730804,313.587769 244.664978,308.092834 
z"/>
<path fill="#EF5E58" opacity="1.000000" stroke="none" 
	d="
M193.022614,267.613281 
	C189.190079,269.988220 184.580475,268.005707 180.200195,270.079651 
	C172.322510,264.011566 166.517776,256.336273 161.620697,247.490509 
	C166.248367,242.575729 171.276779,244.622406 176.723419,246.730286 
	C181.897522,254.106110 186.497787,261.385681 193.022614,267.613281 
z"/>
<path fill="#E86150" opacity="1.000000" stroke="none" 
	d="
M109.627686,251.250061 
	C102.164413,233.675537 103.987175,235.043182 118.805511,233.467239 
	C129.358047,232.344940 139.061920,235.698898 147.264984,243.089996 
	C145.034500,242.438034 142.829544,241.675247 140.568756,241.154877 
	C133.814728,239.600327 127.045891,239.850372 120.249535,241.028427 
	C113.224648,242.246094 113.211334,242.169296 115.101379,249.577148 
	C113.955269,252.428040 112.063705,252.277496 109.627686,251.250061 
z"/>
<path fill="#EA684A" opacity="1.000000" stroke="none" 
	d="
M387.252380,250.419724 
	C389.263947,242.134033 389.253662,242.198730 381.187653,240.916565 
	C376.721497,240.206619 372.234039,239.613129 367.761200,240.258728 
	C363.366699,240.893021 359.042053,242.011765 353.368286,243.192215 
	C366.763000,233.391037 380.171082,231.121094 394.816040,235.352921 
	C396.928711,235.963379 397.280945,237.307617 396.934601,239.131561 
	C396.192841,243.037933 395.768982,247.054901 393.037781,250.676056 
	C391.000397,252.688751 389.190369,252.587646 387.252380,250.419724 
z"/>
<path fill="#EE7145" opacity="1.000000" stroke="none" 
	d="
M247.822464,226.784363 
	C245.587265,229.727768 242.581924,228.959381 239.653641,228.636581 
	C237.696121,228.420776 235.735855,228.229904 233.336426,228.031708 
	C227.667542,222.038803 223.024948,215.619064 218.915863,208.417847 
	C219.314255,204.934647 221.648468,204.762527 224.040680,204.946228 
	C226.496231,205.134781 228.865005,205.868790 231.604431,206.747864 
	C235.984436,212.417877 239.957001,217.860382 244.063416,223.199966 
	C245.037628,224.466751 246.460449,225.388565 247.822464,226.784363 
z"/>
<path fill="#EE7145" opacity="1.000000" stroke="none" 
	d="
M302.523895,209.791229 
	C306.873810,211.686066 311.332977,211.406860 315.631470,211.977020 
	C317.370148,212.207642 319.259094,211.786713 320.795898,213.716278 
	C306.346466,219.037903 294.176636,227.406525 285.431671,240.541336 
	C287.693176,228.408295 293.268127,218.240234 302.523895,209.791229 
z"/>
<path fill="#EF674E" opacity="1.000000" stroke="none" 
	d="
M177.019531,246.602600 
	C172.265381,248.005417 167.355377,246.509872 161.984406,247.123184 
	C157.924911,241.480698 155.496017,235.327057 153.706238,228.489227 
	C157.316559,224.779114 162.564896,224.846603 169.441986,228.640930 
	C172.020584,234.803894 173.902267,240.761047 177.019531,246.602600 
z"/>
<path fill="#EE7145" opacity="1.000000" stroke="none" 
	d="
M335.628174,214.374390 
	C340.806519,214.230362 345.742157,215.468491 351.231628,214.991486 
	C351.082977,221.040527 349.520599,226.863022 347.315247,232.862671 
	C342.299591,234.565018 337.541199,235.634430 332.613831,232.368347 
	C333.373627,226.259384 334.412903,220.519608 335.628174,214.374390 
z"/>
<path fill="#EE7145" opacity="1.000000" stroke="none" 
	d="
M169.781174,228.597046 
	C164.695450,229.290131 159.726929,227.436493 154.133911,228.079193 
	C151.481552,222.883850 151.042007,217.303207 150.270920,211.396973 
	C155.605148,211.327652 160.874191,211.668076 166.598145,212.012909 
	C166.762726,217.613953 168.431763,222.882111 169.781174,228.597046 
z"/>
<path fill="#EB6C46" opacity="1.000000" stroke="none" 
	d="
M182.640915,214.561462 
	C186.777451,212.300690 191.458542,213.017838 196.063843,213.194778 
	C198.058304,213.271408 200.021637,213.523926 202.383286,212.802399 
	C210.370392,220.454346 215.045319,229.663528 216.855759,240.397980 
	C208.252380,228.164200 197.154175,219.414261 182.640915,214.561462 
z"/>
<path fill="#F0793D" opacity="1.000000" stroke="none" 
	d="
M231.875092,206.674133 
	C227.943939,209.008545 223.623734,206.171051 219.214478,207.927719 
	C214.760666,201.867416 212.900650,195.070511 213.581238,187.293015 
	C217.267120,187.065628 220.809402,186.766006 224.647278,187.898254 
	C226.667984,194.333130 227.096130,201.116241 231.875092,206.674133 
z"/>
<path fill="#EF5E58" opacity="1.000000" stroke="none" 
	d="
M324.312836,268.873718 
	C320.761200,268.632172 317.516571,268.257477 313.801880,267.851715 
	C318.394470,261.831879 323.002747,255.539505 326.580139,248.169113 
	C331.719727,245.646912 336.065094,246.080139 339.107605,249.667953 
	C335.427521,257.267426 330.177460,263.123474 324.312836,268.873718 
z"/>
<path fill="#EF674E" opacity="1.000000" stroke="none" 
	d="
M339.330933,249.942627 
	C335.508972,248.066956 331.308777,249.672745 327.250854,248.049988 
	C328.572510,242.871338 330.303864,237.788315 332.184784,232.352234 
	C336.998535,232.325882 341.734344,231.277176 346.703979,232.930466 
	C345.706451,239.171951 342.585876,244.420731 339.330933,249.942627 
z"/>
<path fill="#E4337B" opacity="1.000000" stroke="none" 
	d="
M176.378510,351.856018 
	C173.340668,351.417603 170.583984,350.805695 167.455872,350.111359 
	C168.429184,347.300629 170.865753,345.502930 172.804153,343.278046 
	C177.571732,337.805817 183.344650,335.812775 190.917877,338.096741 
	C185.545624,342.250061 180.582321,346.446381 176.378510,351.856018 
z"/>
<path fill="#E4337B" opacity="1.000000" stroke="none" 
	d="
M334.078796,348.340576 
	C331.585266,350.580353 328.545441,349.795776 325.221558,350.078491 
	C320.604645,345.947021 316.588043,341.646606 311.399780,338.164490 
	C322.366455,334.626312 328.249481,341.159668 334.078796,348.340576 
z"/>
<path fill="#F0793D" opacity="1.000000" stroke="none" 
	d="
M280.222717,192.449127 
	C282.528900,191.994125 284.787994,191.997147 287.471985,191.999191 
	C287.692719,202.317825 283.363464,210.852173 276.250061,218.551758 
	C275.872864,218.659286 275.761108,218.511520 275.414612,218.215027 
	C279.118469,210.131332 280.507599,201.690125 280.222717,192.449127 
z"/>
<path fill="#EA565D" opacity="1.000000" stroke="none" 
	d="
M109.361687,251.327423 
	C110.957390,250.674911 112.644096,250.344177 114.704483,249.999176 
	C119.683838,258.549683 125.935585,265.367798 135.543640,269.097778 
	C136.275070,269.458160 136.450836,269.798248 136.081497,270.433838 
	C124.004082,268.478577 115.193451,262.198029 109.361687,251.327423 
z"/>
<path fill="#E86150" opacity="1.000000" stroke="none" 
	d="
M386.864075,250.284485 
	C388.766449,250.283707 390.459473,250.553070 392.509033,250.907089 
	C388.033997,262.046661 379.077423,267.766052 367.338928,270.505981 
	C366.834503,270.336151 366.736420,270.073151 366.849579,269.445862 
	C375.886047,265.331970 382.666962,259.420288 386.864075,250.284485 
z"/>
<path fill="#9A343F" opacity="1.000000" stroke="none" 
	d="
M291.762573,283.155121 
	C292.053711,283.379150 292.039001,283.649750 291.970123,284.323181 
	C290.786591,285.226379 289.637207,285.561432 288.347748,285.245972 
	C288.878296,283.656860 290.464294,283.894684 291.762573,283.155121 
z"/>
<path fill="#9A343F" opacity="1.000000" stroke="none" 
	d="
M366.744324,269.096741 
	C367.048431,269.335327 367.036102,269.589020 366.978149,270.220947 
	C365.751495,271.179504 364.564270,271.456299 363.255676,270.652649 
	C363.990326,269.384552 365.445740,269.714355 366.744324,269.096741 
z"/>
<path fill="#9A343F" opacity="1.000000" stroke="none" 
	d="
M136.081390,270.767792 
	C135.668213,270.302643 135.650208,269.996124 135.808517,269.455566 
	C136.813019,269.628906 137.759476,270.029297 138.705948,270.429688 
	C138.146225,271.636230 137.169769,270.900482 136.081390,270.767792 
z"/>
<path fill="#9A343F" opacity="1.000000" stroke="none" 
	d="
M180.190018,187.465942 
	C180.362213,186.944962 180.654495,186.714050 181.101700,186.249115 
	C181.850296,186.756927 182.443970,187.498764 183.126923,188.521561 
	C183.238998,189.020309 183.261795,189.238113 183.004425,189.627441 
	C181.919556,189.117981 181.114822,188.436996 180.190018,187.465942 
z"/>
<path fill="#9A343F" opacity="1.000000" stroke="none" 
	d="
M219.171844,286.360168 
	C219.010208,286.128693 218.899063,285.662781 218.898041,285.423309 
	C219.679459,285.589935 220.461899,285.996063 221.244339,286.402161 
	C220.686768,287.265808 220.009262,286.920105 219.171844,286.360168 
z"/>
<path fill="#E86150" opacity="1.000000" stroke="none" 
	d="
M149.559875,244.321579 
	C149.741943,244.394882 150.002701,244.362106 150.001740,244.349716 
	C149.965164,243.880585 149.794342,243.839722 149.559875,244.321579 
z"/>
<path fill="#E97F32" opacity="1.000000" stroke="none" 
	d="
M320.934540,187.924805 
	C320.757690,188.910980 320.251038,189.339035 319.447937,188.696396 
	C319.387512,188.648056 319.768311,188.048294 320.171326,187.517761 
	C320.518005,187.462448 320.637390,187.594223 320.934540,187.924805 
z"/>
<path fill="#9A343F" opacity="1.000000" stroke="none" 
	d="
M293.497131,176.479248 
	C293.489716,176.487991 293.504547,176.470505 293.497131,176.479248 
z"/>
<path fill="#9A343F" opacity="1.000000" stroke="none" 
	d="
M294.362000,174.610443 
	C294.335632,174.364594 294.437439,174.275757 294.539215,174.186920 
	C294.624603,174.291580 294.783081,174.402405 294.774902,174.499146 
	C294.766693,174.595917 294.591919,174.678589 294.362000,174.610443 
z"/>
<path fill="#EE7145" opacity="1.000000" stroke="none" 
	d="
M284.509399,242.464600 
	C284.497681,242.436310 284.521149,242.492874 284.509399,242.464600 
z"/>
<path fill="#9A343F" opacity="1.000000" stroke="none" 
	d="
M274.565491,220.358459 
	C274.612183,220.426193 274.518829,220.290741 274.565491,220.358459 
z"/>
<path fill="#E72D84" opacity="1.000000" stroke="none" 
	d="
M237.375504,342.218933 
	C237.265442,342.004150 236.946136,341.618408 236.993713,341.566040 
	C237.311813,341.216034 237.507812,341.325775 237.368622,341.982697 
	C237.259094,342.164276 237.335999,342.202240 237.375504,342.218933 
z"/>
<path fill="#9A343F" opacity="1.000000" stroke="none" 
	d="
M275.759521,218.647797 
	C275.317322,219.586014 275.034668,219.268951 275.056152,218.252045 
	C275.298065,218.207047 275.416290,218.347794 275.759521,218.647797 
z"/>
<path fill="#9A343F" opacity="1.000000" stroke="none" 
	d="
M183.079498,189.044846 
	C183.585083,189.244431 184.296036,189.718002 182.914124,189.907211 
	C182.797119,189.628372 182.869965,189.457779 183.079498,189.044846 
z"/>
</svg>